<svg xmlns="http://www.w3.org/2000/svg" xmlns:xlink="http://www.w3.org/1999/xlink" width="1921.003" height="296.498" viewBox="0 0 1921.003 296.498">
  <defs>
    <linearGradient id="linear-gradient" x1="0.171" y1="0.657" x2="0.891" y2="0.418" gradientUnits="objectBoundingBox">
      <stop offset="0" stop-color="#21d4fd"/>
      <stop offset="1" stop-color="#b721ff"/>
    </linearGradient>
    <linearGradient id="linear-gradient-2" x1="0.137" y1="0.81" x2="0.799" y2="0.2" gradientUnits="objectBoundingBox">
      <stop offset="0" stop-color="#3eecac"/>
      <stop offset="1" stop-color="#ee74e1"/>
    </linearGradient>
  </defs>
  <g id="Gradients" transform="translate(0.5 -8544.002)">
    <path id="Blue-Purple" d="M1921,492.5H0V411.486c5.13-.37,10.283-.8,15.318-1.286,12.85-1.235,25.847-2.886,38.63-4.907a690.074,690.074,0,0,0,72.091-15.485c46.331-12.46,89.567-28.534,135.342-45.552l.017-.006h.01l.018-.006.014-.005.015-.005c28.462-10.582,57.894-21.524,89.07-31.923,16.825-5.612,32.621-10.559,48.29-15.124,17.647-5.14,34.626-9.651,51.908-13.788,18.619-4.457,37.584-8.451,56.37-11.873,20.19-3.675,40.942-6.831,61.681-9.379,22.043-2.709,44.867-4.831,67.838-6.307,24.208-1.556,49.388-2.45,74.841-2.656,5.418-.044,10.865-.067,16.191-.067,25.46,0,50.945.5,75.747,1.5,23.514.942,47.134,2.355,70.205,4.2,21.687,1.733,43.641,3.909,65.252,6.468,20.041,2.373,40.526,5.167,60.887,8.3,35.141,5.417,71.457,12.085,111.023,20.384,35.033,7.35,68.347,15.061,100.565,22.518l.044.01.033.008c47.982,11.107,93.3,21.6,139.406,29.825,24.674,4.4,47.5,7.789,69.774,10.35,24.8,2.851,48.463,4.633,72.331,5.447,6.555.223,13.25.337,19.9.337,13.97,0,28.373-.5,42.811-1.48,13.814-.94,28.023-2.347,42.231-4.182a815.919,815.919,0,0,0,81.517-14.928,1023.391,1023.391,0,0,0,142.826-45.3c18.934-7.513,37.94-15.653,56.49-24.194,14.463-6.659,28.7-13.583,42.315-20.582V492.5Z" transform="translate(-0.5 8348)" opacity="0.7" fill="url(#linear-gradient)"/>
    <path id="Green-Pink" d="M1921,492.5H0V325.445c5.477,1.727,10.991,3.433,16.391,5.07,30.563,9.268,58.965,16.808,86.831,23.052,15.472,3.467,30.975,6.565,46.079,9.207,16.042,2.8,32.178,5.193,47.96,7.1,16.639,2.008,33.435,3.544,49.919,4.568,17.271,1.073,34.753,1.617,51.959,1.617,8.871,0,17.863-.145,26.725-.429,43.035-1.382,86.011-3.459,131.385-6.35,40.392-2.574,81.744-5.738,126.419-9.671,82.966-7.306,164.836-16.21,244.01-24.82h.028l.074-.008h.011c83.515-9.082,169.873-18.473,256.833-25.893,46.77-3.992,90.054-7.117,132.326-9.554,47.375-2.732,92.292-4.536,137.317-5.514,12.48-.272,24.982-.41,37.157-.41,66.3,0,127.738,4,187.832,12.229,24.6,3.369,49.233,7.47,75.294,12.535,25.494,4.956,49.411,10.283,67.4,14.37,8.445,1.92,16.723,3.826,24.729,5.671l.135.031.428.1h.012c38.059,8.77,74.007,17.054,111.789,23.209,20.229,3.3,39.283,5.7,58.251,7.367,1.259.11,2.506.216,3.709.316V492.5h0Z" transform="translate(-0.5 8348)" opacity="0.7" fill="url(#linear-gradient-2)"/>
    <text id="Credit:_https:_github.com_tthn0" data-name="Credit: https://github.com/tthn0" transform="translate(-0.5 8563.002)" fill="#707070" font-size="20" font-family="HelveticaNeue, Helvetica Neue" opacity="0"><tspan x="0" y="0">github.com/tthn0</tspan></text>
  </g>
</svg>
